<mxfile host="app.diagrams.net" modified="2021-08-19T04:18:30.666Z" agent="5.0 (Windows NT 10.0; Win64; x64) AppleWebKit/537.36 (KHTML, like Gecko) Chrome/92.0.4515.159 Safari/537.36" etag="NUunoRfbQ2N2_KBsDpPr" version="14.9.7" type="github">
  <diagram id="x0mtPKsXIoCM_E7vGqDa" name="Page-1">
    <mxGraphModel dx="1929" dy="582" grid="1" gridSize="10" guides="1" tooltips="1" connect="1" arrows="1" fold="1" page="1" pageScale="1" pageWidth="827" pageHeight="1169" math="0" shadow="0">
      <root>
        <mxCell id="0" />
        <mxCell id="1" parent="0" />
        <mxCell id="L4fkzpxxUZNFCqm3rQeX-3" value="" style="edgeStyle=orthogonalEdgeStyle;rounded=0;orthogonalLoop=1;jettySize=auto;html=1;" parent="1" source="L4fkzpxxUZNFCqm3rQeX-1" target="L4fkzpxxUZNFCqm3rQeX-2" edge="1">
          <mxGeometry relative="1" as="geometry" />
        </mxCell>
        <mxCell id="L4fkzpxxUZNFCqm3rQeX-26" style="edgeStyle=orthogonalEdgeStyle;rounded=0;orthogonalLoop=1;jettySize=auto;html=1;exitX=0.5;exitY=1;exitDx=0;exitDy=0;endArrow=oval;endFill=0;" parent="1" source="L4fkzpxxUZNFCqm3rQeX-1" edge="1">
          <mxGeometry relative="1" as="geometry">
            <mxPoint x="-160" y="160" as="targetPoint" />
          </mxGeometry>
        </mxCell>
        <mxCell id="oZV_gyn4Lc5vq8S6sUId-5" style="edgeStyle=orthogonalEdgeStyle;rounded=0;orthogonalLoop=1;jettySize=auto;html=1;exitX=0.5;exitY=1;exitDx=0;exitDy=0;endArrow=oval;endFill=0;" edge="1" parent="1" source="L4fkzpxxUZNFCqm3rQeX-1" target="L4fkzpxxUZNFCqm3rQeX-6">
          <mxGeometry relative="1" as="geometry" />
        </mxCell>
        <mxCell id="L4fkzpxxUZNFCqm3rQeX-1" value="Carrito" style="rounded=0;whiteSpace=wrap;html=1;fillColor=#ffe6cc;strokeColor=#d79b00;" parent="1" vertex="1">
          <mxGeometry x="-250" y="90" width="120" height="60" as="geometry" />
        </mxCell>
        <mxCell id="L4fkzpxxUZNFCqm3rQeX-5" value="" style="edgeStyle=orthogonalEdgeStyle;rounded=0;orthogonalLoop=1;jettySize=auto;html=1;" parent="1" source="L4fkzpxxUZNFCqm3rQeX-2" target="L4fkzpxxUZNFCqm3rQeX-4" edge="1">
          <mxGeometry relative="1" as="geometry" />
        </mxCell>
        <mxCell id="L4fkzpxxUZNFCqm3rQeX-2" value="contiene" style="rhombus;whiteSpace=wrap;html=1;rounded=0;fillColor=#e1d5e7;strokeColor=#9673a6;" parent="1" vertex="1">
          <mxGeometry x="-10" y="80" width="80" height="80" as="geometry" />
        </mxCell>
        <mxCell id="L4fkzpxxUZNFCqm3rQeX-14" style="edgeStyle=orthogonalEdgeStyle;rounded=0;orthogonalLoop=1;jettySize=auto;html=1;exitX=1;exitY=0.5;exitDx=0;exitDy=0;endArrow=oval;endFill=0;" parent="1" source="L4fkzpxxUZNFCqm3rQeX-4" target="L4fkzpxxUZNFCqm3rQeX-15" edge="1">
          <mxGeometry relative="1" as="geometry">
            <mxPoint x="420" y="120" as="targetPoint" />
          </mxGeometry>
        </mxCell>
        <mxCell id="L4fkzpxxUZNFCqm3rQeX-16" style="edgeStyle=orthogonalEdgeStyle;rounded=0;orthogonalLoop=1;jettySize=auto;html=1;exitX=1;exitY=1;exitDx=0;exitDy=0;endArrow=oval;endFill=0;" parent="1" source="L4fkzpxxUZNFCqm3rQeX-4" target="L4fkzpxxUZNFCqm3rQeX-17" edge="1">
          <mxGeometry relative="1" as="geometry">
            <mxPoint x="380" y="150" as="targetPoint" />
            <Array as="points">
              <mxPoint x="360" y="150" />
              <mxPoint x="360" y="150" />
            </Array>
          </mxGeometry>
        </mxCell>
        <mxCell id="L4fkzpxxUZNFCqm3rQeX-18" style="edgeStyle=orthogonalEdgeStyle;rounded=0;orthogonalLoop=1;jettySize=auto;html=1;exitX=1;exitY=0.75;exitDx=0;exitDy=0;endArrow=oval;endFill=0;" parent="1" source="L4fkzpxxUZNFCqm3rQeX-4" target="L4fkzpxxUZNFCqm3rQeX-19" edge="1">
          <mxGeometry relative="1" as="geometry">
            <mxPoint x="380" y="135" as="targetPoint" />
            <Array as="points">
              <mxPoint x="390" y="135" />
              <mxPoint x="390" y="135" />
            </Array>
          </mxGeometry>
        </mxCell>
        <mxCell id="L4fkzpxxUZNFCqm3rQeX-21" style="edgeStyle=orthogonalEdgeStyle;rounded=0;orthogonalLoop=1;jettySize=auto;html=1;exitX=1;exitY=0;exitDx=0;exitDy=0;endArrow=oval;endFill=0;" parent="1" source="L4fkzpxxUZNFCqm3rQeX-4" target="L4fkzpxxUZNFCqm3rQeX-22" edge="1">
          <mxGeometry relative="1" as="geometry">
            <mxPoint x="390" y="90" as="targetPoint" />
            <Array as="points">
              <mxPoint x="370" y="90" />
              <mxPoint x="370" y="90" />
            </Array>
          </mxGeometry>
        </mxCell>
        <mxCell id="L4fkzpxxUZNFCqm3rQeX-24" style="edgeStyle=orthogonalEdgeStyle;rounded=0;orthogonalLoop=1;jettySize=auto;html=1;exitX=1;exitY=0.25;exitDx=0;exitDy=0;endArrow=oval;endFill=0;" parent="1" source="L4fkzpxxUZNFCqm3rQeX-4" target="L4fkzpxxUZNFCqm3rQeX-25" edge="1">
          <mxGeometry relative="1" as="geometry">
            <mxPoint x="400" y="105" as="targetPoint" />
            <Array as="points">
              <mxPoint x="400" y="105" />
              <mxPoint x="400" y="105" />
            </Array>
          </mxGeometry>
        </mxCell>
        <mxCell id="L4fkzpxxUZNFCqm3rQeX-4" value="ARTICULOS" style="whiteSpace=wrap;html=1;rounded=0;fillColor=#ffe6cc;strokeColor=#d79b00;" parent="1" vertex="1">
          <mxGeometry x="230" y="90" width="120" height="60" as="geometry" />
        </mxCell>
        <mxCell id="L4fkzpxxUZNFCqm3rQeX-9" value="" style="edgeStyle=orthogonalEdgeStyle;rounded=0;orthogonalLoop=1;jettySize=auto;html=1;" parent="1" source="L4fkzpxxUZNFCqm3rQeX-6" target="L4fkzpxxUZNFCqm3rQeX-8" edge="1">
          <mxGeometry relative="1" as="geometry" />
        </mxCell>
        <mxCell id="L4fkzpxxUZNFCqm3rQeX-6" value="SELECCIONA&lt;br&gt;" style="rhombus;whiteSpace=wrap;html=1;rounded=0;fillColor=#e1d5e7;strokeColor=#9673a6;" parent="1" vertex="1">
          <mxGeometry x="-20" y="230" width="90" height="80" as="geometry" />
        </mxCell>
        <mxCell id="L4fkzpxxUZNFCqm3rQeX-11" value="" style="edgeStyle=orthogonalEdgeStyle;rounded=0;orthogonalLoop=1;jettySize=auto;html=1;" parent="1" source="L4fkzpxxUZNFCqm3rQeX-8" target="L4fkzpxxUZNFCqm3rQeX-10" edge="1">
          <mxGeometry relative="1" as="geometry" />
        </mxCell>
        <mxCell id="L4fkzpxxUZNFCqm3rQeX-30" style="edgeStyle=orthogonalEdgeStyle;rounded=0;orthogonalLoop=1;jettySize=auto;html=1;exitX=0;exitY=0.75;exitDx=0;exitDy=0;endArrow=oval;endFill=0;" parent="1" source="L4fkzpxxUZNFCqm3rQeX-8" target="L4fkzpxxUZNFCqm3rQeX-31" edge="1">
          <mxGeometry relative="1" as="geometry">
            <mxPoint x="190" y="435" as="targetPoint" />
            <Array as="points">
              <mxPoint x="230" y="438" />
            </Array>
          </mxGeometry>
        </mxCell>
        <mxCell id="oZV_gyn4Lc5vq8S6sUId-1" style="edgeStyle=orthogonalEdgeStyle;rounded=0;orthogonalLoop=1;jettySize=auto;html=1;exitX=0;exitY=0.25;exitDx=0;exitDy=0;endArrow=oval;endFill=0;" edge="1" parent="1" source="L4fkzpxxUZNFCqm3rQeX-8" target="oZV_gyn4Lc5vq8S6sUId-2">
          <mxGeometry relative="1" as="geometry">
            <mxPoint x="180" y="405" as="targetPoint" />
            <Array as="points">
              <mxPoint x="180" y="403" />
            </Array>
          </mxGeometry>
        </mxCell>
        <mxCell id="L4fkzpxxUZNFCqm3rQeX-8" value="FORMA DE PAGO" style="whiteSpace=wrap;html=1;rounded=0;fillColor=#ffe6cc;strokeColor=#d79b00;" parent="1" vertex="1">
          <mxGeometry x="180" y="290" width="120" height="60" as="geometry" />
        </mxCell>
        <mxCell id="L4fkzpxxUZNFCqm3rQeX-13" value="" style="edgeStyle=orthogonalEdgeStyle;rounded=0;orthogonalLoop=1;jettySize=auto;html=1;" parent="1" source="L4fkzpxxUZNFCqm3rQeX-10" target="L4fkzpxxUZNFCqm3rQeX-12" edge="1">
          <mxGeometry relative="1" as="geometry" />
        </mxCell>
        <mxCell id="L4fkzpxxUZNFCqm3rQeX-10" value="DECIDE" style="rhombus;whiteSpace=wrap;html=1;rounded=0;fillColor=#e1d5e7;strokeColor=#9673a6;" parent="1" vertex="1">
          <mxGeometry x="400" y="300" width="80" height="80" as="geometry" />
        </mxCell>
        <mxCell id="L4fkzpxxUZNFCqm3rQeX-33" style="edgeStyle=orthogonalEdgeStyle;rounded=0;orthogonalLoop=1;jettySize=auto;html=1;exitX=0.25;exitY=1;exitDx=0;exitDy=0;endArrow=oval;endFill=0;" parent="1" source="L4fkzpxxUZNFCqm3rQeX-12" target="L4fkzpxxUZNFCqm3rQeX-34" edge="1">
          <mxGeometry relative="1" as="geometry">
            <mxPoint x="630" y="480" as="targetPoint" />
            <Array as="points">
              <mxPoint x="620" y="440" />
            </Array>
          </mxGeometry>
        </mxCell>
        <mxCell id="L4fkzpxxUZNFCqm3rQeX-35" style="edgeStyle=orthogonalEdgeStyle;rounded=0;orthogonalLoop=1;jettySize=auto;html=1;exitX=0.75;exitY=1;exitDx=0;exitDy=0;endArrow=oval;endFill=0;" parent="1" source="L4fkzpxxUZNFCqm3rQeX-12" target="L4fkzpxxUZNFCqm3rQeX-36" edge="1">
          <mxGeometry relative="1" as="geometry">
            <mxPoint x="680" y="500" as="targetPoint" />
            <Array as="points">
              <mxPoint x="675" y="450" />
            </Array>
          </mxGeometry>
        </mxCell>
        <mxCell id="L4fkzpxxUZNFCqm3rQeX-37" style="edgeStyle=orthogonalEdgeStyle;rounded=0;orthogonalLoop=1;jettySize=auto;html=1;exitX=1;exitY=1;exitDx=0;exitDy=0;endArrow=oval;endFill=0;" parent="1" source="L4fkzpxxUZNFCqm3rQeX-12" target="L4fkzpxxUZNFCqm3rQeX-38" edge="1">
          <mxGeometry relative="1" as="geometry">
            <mxPoint x="710" y="480" as="targetPoint" />
            <Array as="points">
              <mxPoint x="740" y="470" />
              <mxPoint x="740" y="470" />
            </Array>
          </mxGeometry>
        </mxCell>
        <mxCell id="L4fkzpxxUZNFCqm3rQeX-12" value="MÃ‰TODO DE ENVIO" style="whiteSpace=wrap;html=1;rounded=0;fillColor=#ffe6cc;strokeColor=#d79b00;" parent="1" vertex="1">
          <mxGeometry x="590" y="310" width="120" height="60" as="geometry" />
        </mxCell>
        <mxCell id="L4fkzpxxUZNFCqm3rQeX-15" value="Nombre" style="text;html=1;strokeColor=none;fillColor=none;align=center;verticalAlign=middle;whiteSpace=wrap;rounded=0;" parent="1" vertex="1">
          <mxGeometry x="394" y="110" width="66" height="20" as="geometry" />
        </mxCell>
        <mxCell id="L4fkzpxxUZNFCqm3rQeX-17" value="DescripciÃ³n" style="text;html=1;strokeColor=none;fillColor=none;align=center;verticalAlign=middle;whiteSpace=wrap;rounded=0;" parent="1" vertex="1">
          <mxGeometry x="384" y="160" width="66" height="20" as="geometry" />
        </mxCell>
        <mxCell id="L4fkzpxxUZNFCqm3rQeX-19" value="Precio" style="text;html=1;strokeColor=none;fillColor=none;align=center;verticalAlign=middle;whiteSpace=wrap;rounded=0;" parent="1" vertex="1">
          <mxGeometry x="400" y="130" width="70" height="20" as="geometry" />
        </mxCell>
        <mxCell id="L4fkzpxxUZNFCqm3rQeX-22" value="Puntuacion y comentarios&amp;nbsp;" style="text;html=1;strokeColor=none;fillColor=none;align=center;verticalAlign=middle;whiteSpace=wrap;rounded=0;" parent="1" vertex="1">
          <mxGeometry x="350" y="40" width="150" height="30" as="geometry" />
        </mxCell>
        <mxCell id="L4fkzpxxUZNFCqm3rQeX-25" value="Categoria a la que pertenece" style="text;html=1;strokeColor=none;fillColor=none;align=center;verticalAlign=middle;whiteSpace=wrap;rounded=0;" parent="1" vertex="1">
          <mxGeometry x="414" y="90" width="140" height="25" as="geometry" />
        </mxCell>
        <mxCell id="L4fkzpxxUZNFCqm3rQeX-31" value="Transferencia bancarias&lt;br&gt;" style="text;html=1;strokeColor=none;fillColor=none;align=center;verticalAlign=middle;whiteSpace=wrap;rounded=0;" parent="1" vertex="1">
          <mxGeometry x="10" y="430" width="180" height="40" as="geometry" />
        </mxCell>
        <mxCell id="L4fkzpxxUZNFCqm3rQeX-34" value="DirecciÃ³n&amp;nbsp;" style="text;html=1;strokeColor=none;fillColor=none;align=center;verticalAlign=middle;whiteSpace=wrap;rounded=0;" parent="1" vertex="1">
          <mxGeometry x="520" y="430" width="60" height="20" as="geometry" />
        </mxCell>
        <mxCell id="L4fkzpxxUZNFCqm3rQeX-36" value="PaÃ­s" style="text;html=1;strokeColor=none;fillColor=none;align=center;verticalAlign=middle;whiteSpace=wrap;rounded=0;" parent="1" vertex="1">
          <mxGeometry x="650" y="420" width="50" height="30" as="geometry" />
        </mxCell>
        <mxCell id="L4fkzpxxUZNFCqm3rQeX-38" value="Seleccionar tipo de envio" style="text;html=1;strokeColor=none;fillColor=none;align=center;verticalAlign=middle;whiteSpace=wrap;rounded=0;" parent="1" vertex="1">
          <mxGeometry x="690" y="480" width="130" height="30" as="geometry" />
        </mxCell>
        <mxCell id="L4fkzpxxUZNFCqm3rQeX-43" value="N" style="text;html=1;strokeColor=none;fillColor=none;align=center;verticalAlign=middle;whiteSpace=wrap;rounded=0;" parent="1" vertex="1">
          <mxGeometry x="150" y="100" width="40" height="20" as="geometry" />
        </mxCell>
        <mxCell id="L4fkzpxxUZNFCqm3rQeX-44" value="1" style="text;html=1;strokeColor=none;fillColor=none;align=center;verticalAlign=middle;whiteSpace=wrap;rounded=0;" parent="1" vertex="1">
          <mxGeometry x="-90" y="100" width="40" height="20" as="geometry" />
        </mxCell>
        <mxCell id="L4fkzpxxUZNFCqm3rQeX-47" value="1" style="text;html=1;strokeColor=none;fillColor=none;align=center;verticalAlign=middle;whiteSpace=wrap;rounded=0;" parent="1" vertex="1">
          <mxGeometry x="290" y="350" width="40" height="20" as="geometry" />
        </mxCell>
        <mxCell id="oZV_gyn4Lc5vq8S6sUId-2" value="&amp;nbsp;Tarjeta de crÃ©dito" style="text;html=1;strokeColor=none;fillColor=none;align=center;verticalAlign=middle;whiteSpace=wrap;rounded=0;" vertex="1" parent="1">
          <mxGeometry x="25" y="390" width="150" height="25" as="geometry" />
        </mxCell>
      </root>
    </mxGraphModel>
  </diagram>
</mxfile>
